# xmcd CD database file
#
# Track frame offsets:
#	150
#	20458
#	41581
#	65828
#	85642
#	104311
#	133968
#	160565
#	189201
#	206975
#	228332
#	257812
#
# Disc length: 3620 seconds
#
# Revision: 0
# Processed by: cddbd v1.4PL0 Copyright (c) Steve Scherf et al.
# Submitted via: CDex 1.50Beta7
#
DISCID=a00e220c
DTITLE=Ray Kennedy - feat. Brown, Hamilton and J.+M.+B. Pizarelli
DYEAR=1900
DGENRE=Jazz
TTITLE0=I'm Beginning To See The Lights
TTITLE1=If Dreams Come True
TTITLE2=Autumn Nocturne
TTITLE3=You Turned The Table On Me
TTITLE4=Oscar Night
TTITLE5=When I Grow To Old To Dream
TTITLE6=Medley: These Foolish Things/Remind Me Of You/Put Your Little Foot/Body And Soul
TTITLE7=Blues For Czak
TTITLE8=I've Grown Accustomed To Her Face
TTITLE9=I'm In The Mood For Love
TTITLE10=Warm Valley
TTITLE11=Tea For Tatum
EXTD=
EXTT0=
EXTT1=
EXTT2=
EXTT3=
EXTT4=
EXTT5=
EXTT6=
EXTT7=
EXTT8=
EXTT9=
EXTT10=
EXTT11=
PLAYORDER=
